<svg xmlns="http://www.w3.org/2000/svg" viewBox="0 0 128 128" role="img" aria-label="Cafe logo">
  <defs>
    <linearGradient id="bg" x1="0%" y1="0%" x2="100%" y2="100%">
      <stop offset="0%" stop-color="#f59e0b" />
      <stop offset="100%" stop-color="#b45309" />
    </linearGradient>
  </defs>
  <rect width="128" height="128" rx="20" fill="url(#bg)" />
  <path d="M38 44h44c6 0 10 4 10 10v8c0 10-8 18-18 18H44c-6 0-10-4-10-10V54c0-6 4-10 10-10Zm0 6c-2 0-4 2-4 4v16c0 2 2 4 4 4h30c8 0 14-6 14-14v-8c0-2-2-4-4-4H38Z" fill="#fff"/>
  <path d="M70 82c0 6-5 11-11 11s-11-5-11-11" stroke="#fff" stroke-width="6" stroke-linecap="round" fill="none" />
</svg>
